<svg xmlns="http://www.w3.org/2000/svg" viewBox="0 0 64 64" role="img" aria-label="Lernplattform Icon">
  <circle cx="32" cy="32" r="31" fill="#46e0b2"/>

  <g fill="none" stroke="#f2f5f7" stroke-linecap="round" stroke-linejoin="round" stroke-width="3.4">
    <path d="M32 6v14c0 3.2 2.6 5.8 5.8 5.8h6.8"/>
    <path d="M32 58V35.5c0-3.8-3.1-6.9-6.9-6.9H6"/>
    <path d="M44.6 26h5.8"/>
    <path d="M20.2 20h5.8c3.8 0 6.9 3.1 6.9 6.9V58"/>
    <path d="M20 34h6.2c3.2 0 5.8 2.6 5.8 5.8v18.2"/>
    <path d="M44.4 46h-5.6c-3.2 0-5.8 2.6-5.8 5.8V58"/>
  </g>

  <g fill="#46e0b2" stroke="#f2f5f7" stroke-width="3.4">
    <circle cx="20" cy="20" r="4.3"/>
    <circle cx="50" cy="26" r="4.3"/>
    <circle cx="20" cy="34" r="4.3"/>
    <circle cx="50" cy="46" r="4.3"/>
  </g>
</svg>
